# Blender v2.74 (sub 0) OBJ File: ''
# www.blender.org
o Cube
v 0.500000 -4.000000 -3.999998
v 0.500000 -4.000000 3.999998
v -0.500000 -4.000000 3.999997
v -0.500000 -4.000000 -4.000000
v 0.500000 4.000000 -3.999996
v 0.499999 4.000000 4.000000
v -0.500000 4.000000 3.999997
v -0.500000 4.000000 -3.999998
v 0.500000 -3.466667 -3.999997
v 0.500000 3.466667 -3.999997
v 0.500000 -3.466667 3.999999
v 0.500000 3.466667 4.000000
v -0.500000 -3.466667 3.999997
v -0.500000 3.466667 3.999997
v -0.500000 -3.466667 -3.999999
v -0.500000 3.466667 -3.999999
v 0.500000 -4.000000 -3.466664
v 0.500000 -4.000000 3.466666
v -0.500000 -4.000000 3.466662
v -0.500000 -4.000000 -3.466669
v 0.500000 4.000000 -3.466660
v 0.500000 4.000000 3.466671
v -0.500000 4.000000 3.466662
v -0.500000 4.000000 -3.466666
v -0.500000 -3.466667 3.466662
v -0.500000 -3.466667 -3.466668
v -0.500000 3.466667 3.466662
v -0.500000 3.466667 -3.466668
v 0.500000 -3.466667 -3.466663
v 0.500000 -3.466667 3.466667
v 0.500000 3.466667 -3.466661
v 0.500000 3.466667 3.466670
v 0.700000 -4.000000 3.466666
v 0.700000 -4.000000 3.999998
v 0.700000 3.466667 -3.999997
v 0.700000 4.000000 -3.999996
v 0.700000 3.466667 4.000000
v 0.699999 4.000000 4.000000
v 0.700000 4.000000 3.466671
v 0.700000 -4.000000 -3.999998
v 0.700000 -3.466667 -3.999997
v 0.700000 -3.466667 3.999999
v 0.700000 -3.466667 3.466667
v 0.700000 3.466667 3.466670
v 0.700000 -4.000000 -3.466664
v 0.700000 4.000000 -3.466660
v 0.700000 -3.466667 -3.466663
v 0.700000 3.466667 -3.466661
v -0.700000 -4.000000 -3.466669
v -0.700000 -4.000000 -4.000000
v -0.700000 3.466667 3.999997
v -0.700000 4.000000 3.999997
v -0.700000 3.466667 -3.999999
v -0.700000 4.000000 -3.999998
v -0.700000 4.000000 -3.466666
v -0.700000 -4.000000 3.999997
v -0.700000 -3.466667 3.999997
v -0.700000 -3.466667 -3.999999
v -0.700000 -3.466667 -3.466668
v -0.700000 3.466667 -3.466668
v -0.700000 -4.000000 3.466662
v -0.700000 4.000000 3.466662
v -0.700000 -3.466667 3.466662
v -0.700000 3.466667 3.466662
vt 0.999999 0.000000
vt 0.999999 1.000000
vt 0.000000 1.000000
vt 0.000000 0.000000
vt 0.266655 0.716467
vt 0.267581 0.763089
vt 0.104303 0.762928
vt 0.104889 0.720565
vt 0.264233 0.329488
vt 0.113216 0.323992
vt 0.112428 0.277394
vt 0.265149 0.282972
vt 0.963151 0.051894
vt 0.963151 0.612805
vt 0.908883 0.612805
vt 0.908883 0.051894
vt 0.266973 0.234450
vt 0.111203 0.234450
vt 0.104901 0.168672
vt 0.076508 0.712543
vt 0.076458 0.177666
vt 0.269505 0.066687
vt 0.267873 0.116311
vt 0.103833 0.121705
vt 0.102268 0.077864
vt 0.262761 0.932025
vt 0.263730 0.976054
vt 0.110277 0.966629
vt 0.112004 0.919681
vt 0.836525 0.051894
vt 0.836525 0.612805
vt 0.565183 0.612805
vt 0.565183 0.051894
vt 0.112894 0.874324
vt 0.089383 0.901217
vt 0.087776 0.869252
vt 0.087377 0.331036
vt 0.268946 0.805845
vt 0.102641 0.812150
vt 0.859761 0.418838
vt 0.859761 0.979749
vt 0.640378 0.979749
vt 0.640378 0.418838
vt 0.262331 0.889340
vt 0.290319 0.336207
vt 0.288947 0.881611
vt 0.294603 0.709365
vt 0.292608 0.741780
vt 0.890793 0.051894
vt 0.890793 0.612805
vt 0.287256 0.916343
vt 0.293293 0.949484
vt 0.903638 0.418838
vt 0.903638 0.979749
vt 0.537999 0.979749
vt 0.537999 0.418838
vt 0.581875 0.418838
vt 0.581876 0.979749
vt 0.034575 0.725699
vt 0.034575 0.163529
vt 0.065946 0.163529
vt 0.065946 0.725699
vt 0.048377 0.883952
vt 0.047651 0.315998
vt 0.077083 0.315252
vt 0.077809 0.883206
vt 0.596501 0.979749
vt 0.596501 0.418838
vt 0.089203 0.298710
vt 0.083253 0.267245
vt 0.295513 0.277284
vt 0.288024 0.303012
vt 0.267319 0.158959
vt 0.293513 0.130646
vt 0.295898 0.167014
vt 0.299899 0.323731
vt 0.305695 0.725441
vt 0.298990 0.773289
vt 0.918263 0.418838
vt 0.918263 0.979749
vt 0.301832 0.103840
vt 0.306618 0.153795
vt 0.299663 0.898584
vt 0.962140 0.418838
vt 0.962140 0.979749
vt 0.329689 0.323973
vt 0.329453 0.898827
vt 0.338517 0.154676
vt 0.337594 0.726322
vt 0.083452 0.927903
vt 0.071019 0.113521
vt 0.079232 0.144771
vt 0.492825 0.612805
vt 0.492825 0.051894
vt 0.510915 0.051894
vt 0.510915 0.612805
vt 0.078874 0.748562
vt 0.070663 0.775023
vt 0.438557 0.612805
vt 0.438557 0.051894
vn 1.000000 -0.000000 0.000000
vn -1.000000 -0.000000 -0.000000
vn 0.000000 -1.000000 0.000000
vn 0.000000 1.000000 -0.000000
vn 0.000000 -0.000000 1.000000
vn 0.000000 0.000000 -1.000000
s off
f 29/1/1 31/2/1 32/3/1 30/4/1
f 25/4/2 27/3/2 28/2/2 26/1/2
f 18/5/3 2/6/3 3/7/3 19/8/3
f 22/9/4 23/10/4 7/11/4 6/12/4
f 31/13/5 29/14/5 47/15/5 48/16/5
f 12/17/5 6/12/5 7/11/5 14/18/5
f 20/19/3 19/8/3 61/20/3 49/21/3
f 9/22/6 1/23/6 4/24/6 15/25/6
f 5/26/6 10/27/6 16/28/6 8/29/6
f 10/30/6 9/31/6 15/32/6 16/33/6
f 24/34/4 8/29/4 54/35/4 55/36/4
f 23/10/4 24/34/4 55/36/4 62/37/4
f 2/6/5 11/38/5 13/39/5 3/7/5
f 11/40/5 12/41/5 14/42/5 13/43/5
f 21/44/4 22/9/4 39/45/4 46/46/4
f 2/6/3 18/5/3 33/47/3 34/48/3
f 9/31/6 10/30/6 35/49/6 41/50/6
f 10/27/6 5/26/6 36/51/6 35/52/6
f 12/41/5 11/40/5 42/53/5 37/54/5
f 27/55/6 25/56/6 63/57/6 64/58/6
f 25/59/4 26/60/4 59/61/4 63/62/4
f 28/63/3 27/64/3 64/65/3 60/66/3
f 13/43/5 14/42/5 51/67/5 57/68/5
f 14/18/5 7/11/5 52/69/5 51/70/5
f 6/12/5 12/17/5 37/71/5 38/72/5
f 17/73/3 1/23/3 40/74/3 45/75/3
f 5/26/4 8/29/4 24/34/4 21/44/4
f 21/44/4 24/34/4 23/10/4 22/9/4
f 1/23/3 17/73/3 20/19/3 4/24/3
f 17/73/3 18/5/3 19/8/3 20/19/3
f 44/76/1 39/45/1 38/72/1 37/71/1
f 33/47/1 43/77/1 42/78/1 34/48/1
f 43/79/1 44/80/1 37/54/1 42/53/1
f 41/50/1 35/49/1 48/16/1 47/15/1
f 40/74/1 41/81/1 47/82/1 45/75/1
f 45/75/1 47/82/1 43/77/1 33/47/1
f 35/52/1 36/51/1 46/46/1 48/83/1
f 48/83/1 46/46/1 39/45/1 44/76/1
f 18/5/3 17/73/3 45/75/3 33/47/3
f 11/38/5 2/6/5 34/48/5 42/78/5
f 1/23/6 9/22/6 41/81/6 40/74/6
f 30/84/6 32/85/6 44/80/6 43/79/6
f 5/26/4 21/44/4 46/46/4 36/51/4
f 32/86/3 31/87/3 48/83/3 44/76/3
f 22/9/4 6/12/4 38/72/4 39/45/4
f 29/88/4 30/89/4 43/77/4 47/82/4
f 60/66/2 55/36/2 54/35/2 53/90/2
f 49/21/2 59/61/2 58/91/2 50/92/2
f 59/93/2 60/94/2 53/95/2 58/96/2
f 57/68/2 51/67/2 64/58/2 63/57/2
f 56/97/2 57/98/2 63/62/2 61/20/2
f 61/20/2 63/62/2 59/61/2 49/21/2
f 51/70/2 52/69/2 62/37/2 64/65/2
f 64/65/2 62/37/2 55/36/2 60/66/2
f 8/29/6 16/28/6 53/90/6 54/35/6
f 15/25/6 4/24/6 50/92/6 58/91/6
f 4/24/3 20/19/3 49/21/3 50/92/3
f 3/7/5 13/39/5 57/98/5 56/97/5
f 26/99/5 28/100/5 60/94/5 59/93/5
f 7/11/4 23/10/4 62/37/4 52/69/4
f 16/33/6 15/32/6 58/96/6 53/95/6
f 19/8/3 3/7/3 56/97/3 61/20/3
