# Blender v2.74 (sub 0) OBJ File: ''
# www.blender.org
o Cube.016_Cube.019
v 0.500000 0.000000 0.500000
v 0.500000 0.000000 1.000000
v -0.000000 0.000000 1.000000
v 0.000000 0.000000 0.500000
v 0.250000 0.375000 0.750000
v 1.000000 0.000000 0.500000
v 1.000000 0.000000 1.000000
v 0.500000 0.000000 1.000000
v 0.500000 0.000000 0.500000
v 0.750000 0.375000 0.750000
v 1.000000 0.000000 0.000000
v 1.000000 0.000000 0.500000
v 0.500000 0.000000 0.500000
v 0.500000 0.000000 -0.000000
v 0.750000 0.375000 0.250000
v 0.500000 0.000000 0.000000
v 0.500000 0.000000 0.500000
v -0.000000 0.000000 0.500000
v 0.000000 0.000000 -0.000000
v 0.250000 0.375000 0.250000
v 0.500000 0.000000 -0.500000
v 0.500000 0.000000 0.000000
v -0.000000 0.000000 -0.000000
v 0.000000 0.000000 -0.500000
v 0.250000 0.375000 -0.250000
v 1.000000 0.000000 -0.500000
v 1.000000 0.000000 0.000000
v 0.500000 0.000000 -0.000000
v 0.500000 0.000000 -0.500000
v 0.750000 0.375000 -0.250000
v 1.000000 0.000000 -1.000000
v 1.000000 0.000000 -0.500000
v 0.500000 0.000000 -0.500000
v 0.500000 0.000000 -1.000000
v 0.750000 0.375000 -0.750000
v 0.500000 0.000000 -1.000000
v 0.500000 0.000000 -0.500000
v -0.000000 0.000000 -0.500000
v 0.000000 0.000000 -1.000000
v 0.250000 0.375000 -0.750000
v 0.000000 0.000000 -1.000000
v 0.000000 0.000000 -0.500000
v -0.500000 0.000000 -0.500000
v -0.500000 0.000000 -1.000000
v -0.250000 0.375000 -0.750000
v -0.500000 0.000000 -1.000000
v -0.500000 0.000000 -0.500000
v -1.000000 0.000000 -0.500000
v -1.000000 0.000000 -1.000000
v -0.750000 0.375000 -0.750000
v 0.000000 0.000000 -0.500000
v 0.000000 0.000000 0.000000
v -0.500000 0.000000 -0.000000
v -0.500000 0.000000 -0.500000
v -0.250000 0.375000 -0.250000
v -0.500000 0.000000 -0.500000
v -0.500000 0.000000 0.000000
v -1.000000 0.000000 -0.000000
v -1.000000 0.000000 -0.500000
v -0.750000 0.375000 -0.250000
v 0.000000 0.000000 0.500000
v 0.000000 0.000000 1.000000
v -0.500000 0.000000 1.000000
v -0.500000 0.000000 0.500000
v -0.250000 0.375000 0.750000
v 0.000000 0.000000 0.000000
v 0.000000 0.000000 0.500000
v -0.500000 0.000000 0.500000
v -0.500000 0.000000 -0.000000
v -0.250000 0.375000 0.250000
v -0.500000 0.000000 0.000000
v -0.500000 0.000000 0.500000
v -1.000000 0.000000 0.500000
v -1.000000 0.000000 -0.000000
v -0.750000 0.375000 0.250000
v -0.500000 0.000000 0.500000
v -0.500000 0.000000 1.000000
v -1.000000 0.000000 1.000000
v -1.000000 0.000000 0.500000
v -0.750000 0.375000 0.750000
vt 1.000000 1.000000
vt 0.000000 1.000000
vt 0.000000 0.000000
vt 0.000000 0.000100
vt 0.500000 0.500000
vt 1.000000 0.000000
vn 0.000000 -1.000000 0.000000
vn 0.832100 0.554700 0.000000
vn 0.000000 0.554700 0.832100
vn -0.832100 0.554700 -0.000000
vn 0.000000 0.554700 -0.832100
s off
f 1/1/1 2/2/1 3/3/1
f 1/4/2 5/5/2 2/2/2
f 2/2/3 5/5/3 3/1/3
f 3/1/4 5/5/4 4/6/4
f 5/5/5 1/4/5 4/6/5
f 7/2/1 8/3/1 9/6/1
f 6/4/2 10/5/2 7/2/2
f 7/2/3 10/5/3 8/1/3
f 8/1/4 10/5/4 9/6/4
f 10/5/5 6/4/5 9/6/5
f 11/1/1 12/2/1 13/3/1
f 11/4/2 15/5/2 12/2/2
f 12/2/3 15/5/3 13/1/3
f 13/1/4 15/5/4 14/6/4
f 15/5/5 11/4/5 14/6/5
f 16/1/1 17/2/1 18/3/1
f 16/4/2 20/5/2 17/2/2
f 17/2/3 20/5/3 18/1/3
f 18/1/4 20/5/4 19/6/4
f 20/5/5 16/4/5 19/6/5
f 21/1/1 22/2/1 23/3/1
f 21/4/2 25/5/2 22/2/2
f 22/2/3 25/5/3 23/1/3
f 23/1/4 25/5/4 24/6/4
f 25/5/5 21/4/5 24/6/5
f 26/1/1 27/2/1 28/3/1
f 26/4/2 30/5/2 27/2/2
f 27/2/3 30/5/3 28/1/3
f 28/1/4 30/5/4 29/6/4
f 30/5/5 26/4/5 29/6/5
f 32/2/1 33/3/1 34/6/1
f 31/4/2 35/5/2 32/2/2
f 32/2/3 35/5/3 33/1/3
f 33/1/4 35/5/4 34/6/4
f 35/5/5 31/4/5 34/6/5
f 37/2/1 38/3/1 39/6/1
f 36/4/2 40/5/2 37/2/2
f 37/2/3 40/5/3 38/1/3
f 38/1/4 40/5/4 39/6/4
f 40/5/5 36/4/5 39/6/5
f 42/2/1 43/3/1 44/6/1
f 41/4/2 45/5/2 42/2/2
f 42/2/3 45/5/3 43/1/3
f 43/1/4 45/5/4 44/6/4
f 45/5/5 41/4/5 44/6/5
f 47/2/1 48/3/1 49/6/1
f 46/4/2 50/5/2 47/2/2
f 47/2/3 50/5/3 48/1/3
f 48/1/4 50/5/4 49/6/4
f 50/5/5 46/4/5 49/6/5
f 51/1/1 52/2/1 53/3/1
f 51/4/2 55/5/2 52/2/2
f 52/2/3 55/5/3 53/1/3
f 53/1/4 55/5/4 54/6/4
f 55/5/5 51/4/5 54/6/5
f 56/1/1 57/2/1 58/3/1
f 56/4/2 60/5/2 57/2/2
f 57/2/3 60/5/3 58/1/3
f 58/1/4 60/5/4 59/6/4
f 60/5/5 56/4/5 59/6/5
f 62/2/1 63/3/1 64/6/1
f 61/4/2 65/5/2 62/2/2
f 62/2/3 65/5/3 63/1/3
f 63/1/4 65/5/4 64/6/4
f 65/5/5 61/4/5 64/6/5
f 66/1/1 67/2/1 68/3/1
f 66/4/2 70/5/2 67/2/2
f 67/2/3 70/5/3 68/1/3
f 68/1/4 70/5/4 69/6/4
f 70/5/5 66/4/5 69/6/5
f 71/1/1 72/2/1 73/3/1
f 71/4/2 75/5/2 72/2/2
f 72/2/3 75/5/3 73/1/3
f 73/1/4 75/5/4 74/6/4
f 75/5/5 71/4/5 74/6/5
f 77/2/1 78/3/1 79/6/1
f 76/4/2 80/5/2 77/2/2
f 77/2/3 80/5/3 78/1/3
f 78/1/4 80/5/4 79/6/4
f 80/5/5 76/4/5 79/6/5
f 4/6/1 1/1/1 3/3/1
f 6/1/1 7/2/1 9/6/1
f 14/6/1 11/1/1 13/3/1
f 19/6/1 16/1/1 18/3/1
f 24/6/1 21/1/1 23/3/1
f 29/6/1 26/1/1 28/3/1
f 31/1/1 32/2/1 34/6/1
f 36/1/1 37/2/1 39/6/1
f 41/1/1 42/2/1 44/6/1
f 46/1/1 47/2/1 49/6/1
f 54/6/1 51/1/1 53/3/1
f 59/6/1 56/1/1 58/3/1
f 61/1/1 62/2/1 64/6/1
f 69/6/1 66/1/1 68/3/1
f 74/6/1 71/1/1 73/3/1
f 76/1/1 77/2/1 79/6/1
