# Blender v2.74 (sub 0) OBJ File: ''
# www.blender.org
o Cube
v 2.250000 -0.125000 -2.249999
v 2.250000 -0.125000 2.250000
v -2.250000 -0.125000 2.249999
v -2.249999 -0.125000 -2.250000
v 2.025001 0.125000 -2.024999
v 2.024999 0.125000 2.025001
v -2.025001 0.125000 2.024999
v -2.025000 0.125000 -2.025000
vt 1.000000 1.000000
vt 1.000000 0.000000
vt 0.000000 0.000000
vt 0.000000 1.000000
vt 0.950000 0.950000
vt 0.050000 0.950000
vt 0.050000 0.050000
vt 0.950000 0.050000
vn 0.000000 -1.000000 0.000000
vn 0.000000 1.000000 0.000000
vn 0.743300 0.669000 0.000000
vn -0.000000 0.669000 0.743300
vn -0.743300 0.669000 -0.000000
vn 0.000000 0.669000 -0.743300
s off
f 1/1/1 2/2/1 3/3/1 4/4/1
f 5/5/2 8/6/2 7/7/2 6/8/2
f 1/1/3 5/5/3 6/8/3 2/2/3
f 2/2/4 6/8/4 7/7/4 3/3/4
f 3/3/5 7/7/5 8/6/5 4/4/5
f 5/5/6 1/1/6 4/4/6 8/6/6
